<svg width="96" height="96" viewBox="0 0 96 96" fill="none" xmlns="http://www.w3.org/2000/svg">
<path fill-rule="evenodd" clip-rule="evenodd" d="M65.4031 28.4753C67.6926 25.543 72.0344 16.0734 71.649 10.2948C71.5164 9.95017 71.5071 9.65181 71.6425 9.42512C72.173 8.53748 74.723 9.08472 77.3381 10.6474C79.7818 12.1077 81.4177 13.938 81.1889 14.8959L81.2169 14.9113C81.1398 15.0584 81.0548 15.2129 80.9623 15.3741C80.8351 15.596 80.6937 15.8307 80.5394 16.0768C80.3479 16.3822 80.1366 16.7051 79.9078 17.0428C77.3834 20.7683 72.7335 26.2863 69.1687 29.8511C68.5261 30.4937 67.7229 31.9716 69.6506 32.7427C72.0602 33.7065 87 39.9716 87 54.4294C87 63.6286 82.1223 69.9825 78.1861 73.2486C77.1732 74.0889 76.2227 74.7249 75.4337 75.1523C75.6038 74.2451 75.7199 73.1657 75.7364 71.9948C75.8132 66.5309 73.7213 59.0729 64.8313 57.8029C51.3373 55.8752 47 70.333 48.9277 75.1523C49.9378 77.6777 52.2437 79.7895 54.3014 81.2169C55.3852 81.9687 56.4 82.5306 57.1205 82.8631C56.2597 83.229 55.1728 83.5954 53.8766 83.9297C45.8031 86.0121 29.6081 86.8493 9.32331 78.5457C8.55467 78.231 7.78016 77.9033 7 77.5619C7.35982 76.9622 7.77766 76.2236 8.23074 75.3713C10.8119 70.5158 14.5368 61.9728 15.1928 54.4294C16.1566 43.3451 18.709 22.7395 39.7711 19.7306C51.1494 18.1051 59.1012 21.9622 61.8928 26.1009C62.4118 26.8704 62.7525 27.6497 62.9036 28.4053C62.8999 28.3826 62.8972 28.3851 62.8993 28.406C62.8993 28.4061 62.8993 28.4061 62.8993 28.4062C62.9121 28.5359 63.1058 29.3692 64.3494 29.3692C64.5884 29.3692 64.954 29.049 65.3969 28.4832C65.399 28.4806 65.401 28.478 65.4031 28.4753ZM64.4207 25.4365C65.0468 24.3709 65.7538 22.9835 66.4319 21.4239C68.0494 17.704 69.2643 13.5515 69.1681 10.7314C68.9892 10.0369 68.9359 9.08092 69.4965 8.14274L71.6425 9.42512L69.4965 8.14273C70.1805 6.99818 71.3229 6.6456 72.0455 6.54552C72.7976 6.44134 73.5646 6.52958 74.2331 6.67305C75.596 6.96554 77.1432 7.61859 78.6205 8.50139C80.0059 9.32927 81.2341 10.3018 82.1216 11.285C82.5615 11.7724 82.9816 12.3327 83.2775 12.9438C83.4832 13.3686 83.7156 13.998 83.7106 14.7301C83.7436 15.1796 83.6556 15.6434 83.4314 16.0713C82.4217 17.9989 80.3523 20.8173 78.0978 23.5952C76.0511 26.117 73.7355 28.7469 71.6664 30.8778C73.6412 31.7463 77.3485 33.5914 80.8652 36.6356C85.2383 40.4213 89.5 46.2354 89.5 54.4294C89.5 67.166 81.0368 74.9605 76.6244 77.3505C75.7766 77.8097 74.7403 77.7405 73.9611 77.1726C73.182 76.6046 72.7988 75.6392 72.9765 74.6916C73.3974 72.4468 73.4187 69.0071 72.2258 66.0686C71.1012 63.2986 68.9003 60.9096 64.4778 60.2778C58.8568 59.4748 55.2973 62.0025 53.2055 65.2897C52.1303 66.9793 51.4593 68.8626 51.1652 70.5632C50.8597 72.3297 51.0061 73.6168 51.2489 74.2238C51.8014 75.605 52.9771 76.9724 54.4173 78.1695C55.8354 79.3482 57.3111 80.1977 58.1681 80.5932C59.0661 81.0077 59.6353 81.9125 59.6202 82.9013C59.6051 83.8901 59.0085 84.7771 58.0983 85.164C50.9382 88.207 31.1948 90.8759 5.99795 79.8523C5.33954 79.5643 4.83693 79.0068 4.61839 78.3222C4.39985 77.6375 4.48651 76.8919 4.85627 76.2757C7.19673 72.3749 11.9801 62.5165 12.7022 54.2128C13.1844 48.6671 14.0839 40.3231 17.7006 32.9506C21.3911 25.4278 27.9315 18.8966 39.4175 17.2557C46.5803 16.2325 52.6114 17.235 57.0707 19.2619C60.3543 20.7545 63.0181 22.9297 64.4207 25.4365ZM70.4898 30.3804C70.4898 30.3804 70.4909 30.381 70.493 30.3823C70.4908 30.3811 70.4898 30.3804 70.4898 30.3804ZM70.8813 31.6902C70.8792 31.6946 70.878 31.6967 70.878 31.6965C70.878 31.6963 70.8789 31.6945 70.8807 31.6912C70.8809 31.6909 70.8811 31.6905 70.8813 31.6902Z" fill="#00532B"/>
<path d="M81.2169 15.0934L71.5783 9.79224C72.5422 16.5392 65.8734 29.5513 64.3494 29.5513C62.9036 29.5513 62.8769 28.425 62.9036 28.5874C61.9398 23.7681 53.2651 17.985 39.7711 19.9127C18.709 22.9216 16.1566 43.5272 15.1928 54.6115C14.4217 63.479 9.40964 73.728 7 77.7441C31.6747 88.5392 50.6948 85.7762 57.1205 83.0453C55.0321 82.0814 50.4699 79.1898 48.9277 75.3344C47 70.5151 51.3373 56.0573 64.8313 57.985C75.6265 59.5272 76.3976 70.1939 75.4337 75.3344C79.2892 73.2461 87 66.1778 87 54.6115C87 40.1537 72.0602 33.8886 69.6506 32.9248C67.7229 32.1537 68.5261 30.6758 69.1687 30.0332C73.506 25.6958 79.4498 18.4669 81.2169 15.0934Z" fill="url(#paint0_radial)"/>
<mask id="mask0" style="mask-type:alpha" maskUnits="userSpaceOnUse" x="7" y="9" width="80" height="77">
<path d="M81.2169 15.0934L71.5783 9.79224C72.5422 16.5392 65.8734 29.5513 64.3494 29.5513C62.9036 29.5513 62.8769 28.425 62.9036 28.5874C61.9398 23.7681 53.2651 17.985 39.7711 19.9127C18.709 22.9216 16.1566 43.5272 15.1928 54.6115C14.4217 63.479 9.40964 73.728 7 77.7441C31.6747 88.5392 50.6948 85.7762 57.1205 83.0453C55.0321 82.0814 50.4699 79.1898 48.9277 75.3344C47 70.5151 51.3373 56.0573 64.8313 57.985C75.6265 59.5272 76.3976 70.1939 75.4337 75.3344C79.2892 73.2461 87 66.1778 87 54.6115C87 40.1537 72.0602 33.8886 69.6506 32.9248C67.7229 32.1537 68.5261 30.6758 69.1687 30.0332C73.506 25.6958 79.4498 18.4669 81.2169 15.0934Z" fill="url(#paint1_radial)"/>
</mask>
<g mask="url(#mask0)">
<path d="M69.1687 27.6236C73.506 23.7682 75.3224 17.3425 77.4107 13.1658L83.1939 16.0573L75.0011 29.5513C84.6396 30.9971 95.2421 52.2019 89.4589 64.2501C84.8324 73.8887 76.6075 76.9409 73.0734 77.2622L75.0011 74.8525C80.7842 65.214 82.7119 44.973 66.8083 36.7802C50.9047 28.5875 52.8324 54.1296 51.3866 54.1296C49.9408 54.1296 50.4228 43.5272 48.977 42.5634C47.8204 41.7923 38.3746 50.2742 38.3746 54.1296C42.7119 62.8043 39.8204 74.3706 39.8204 70.0333C39.8204 65.6959 36.3976 59.4308 35.4337 57.9851C34.4699 56.5393 19.5794 73.4067 18.6156 72.9248C17.6517 72.4429 31.1457 57.0212 31.1457 55.0935C31.1457 53.1658 21.9891 56.5393 21.0252 55.5754C20.2541 54.8043 29.3786 51.72 34.0372 50.2742C38.8565 45.6156 47.5312 36.0091 43.6758 34.8525C38.8565 33.4067 29.6999 36.2983 30.1818 34.3706C30.6638 32.4429 42.23 32.4429 45.6035 32.4429C48.977 32.4429 54.2782 32.4429 55.724 26.6597C56.8806 22.0332 44.6397 18.9489 38.3746 17.985C51.0975 15.2863 62.4217 21.8405 63.8675 29.5513C64.5101 29.8726 67.88 28.7691 69.1687 27.6236Z" fill="url(#paint2_linear)" style="mix-blend-mode:multiply"/>
</g>
<ellipse cx="76.3777" cy="12.4368" rx="5.51613" ry="1.87232" transform="rotate(30.8609 76.3777 12.4368)" fill="#8FE273"/>
<defs>
<radialGradient id="paint0_radial" cx="0" cy="0" r="1" gradientUnits="userSpaceOnUse" gradientTransform="translate(37.8434 32.4428) rotate(80.2107) scale(53.8544 56.8978)">
<stop stop-color="#33CC26"/>
<stop offset="1" stop-color="#15953E"/>
</radialGradient>
<radialGradient id="paint1_radial" cx="0" cy="0" r="1" gradientUnits="userSpaceOnUse" gradientTransform="translate(37.8434 32.4428) rotate(80.2107) scale(53.8544 56.8978)">
<stop stop-color="#33CC26"/>
<stop offset="1" stop-color="#15953E"/>
</radialGradient>
<linearGradient id="paint2_linear" x1="45.0723" y1="21.3585" x2="71.0964" y2="77.2622" gradientUnits="userSpaceOnUse">
<stop stop-color="#0FE47E"/>
<stop offset="1" stop-color="#009F53"/>
</linearGradient>
</defs>
</svg>
